 <svg
          xmlns="http://www.w3.org/2000/svg"
          width="118"
          height="41"
          viewBox="0 0 118 41"
          fill="none"
        >
          <g clip-path="url(#clip0_90_4)">
            <path
              d="M106.039 0L96.9232 20.0732L94.2974 0H85.6188L76.1379 20.4832L74.2421 0H48.4246L45.6535 11.2637H55.8634L57.1763 6.42605L64.9066 18.4848L51.5611 30.9036L52.3632 26.1383H34.6414L32.0156 37.2582H77.9615L87.5155 17.5459L89.8489 37.2582H100.861L118 0H106.039Z"
              fill="#D80B0B"
            />
            <path
              d="M39.6006 40.8683H63.5945L64.9066 38.558H40.1835L39.6006 40.8683Z"
              fill="#D80B0B"
            />
            <path
              d="M43.1008 21.5169L44.7783 15.3794L30.6306 14.8747L28.9531 21.5169H43.1008Z"
              fill="#D80B0B"
            />
            <path
              d="M43.539 6.13748H34.8604L33.8398 10.3971H42.5916L43.539 6.13748Z"
              fill="#D80B0B"
            />
            <path
              d="M27.5666 10.3971H18.961L18.0127 14.369H26.546L27.5666 10.3971Z"
              fill="#D80B0B"
            />
            <path
              d="M11.8867 24.7661H21.5137L22.7901 20.1456H12.9812L11.8867 24.7661Z"
              fill="#D80B0B"
            />
            <path
              d="M6.05273 30.4703H12.1787L12.8356 27.3658H6.78183L6.05273 30.4703Z"
              fill="#D80B0B"
            />
            <path
              d="M16.7734 34.2975H28.1509L29.2446 28.9181H18.0132L16.7734 34.2975Z"
              fill="#D80B0B"
            />
            <path
              d="M21.8057 40.5789H28.0778L28.953 37.5467H22.7905L21.8057 40.5789Z"
              fill="#D80B0B"
            />
            <path
              d="M0.65601 19.8561L0 22.8891H5.61524L6.4905 19.8561H0.65601Z"
              fill="#D80B0B"
            />
            <path
              d="M14.2938 12.3835H8.60552L7.58496 15.6689H13.4186L14.2938 12.3835Z"
              fill="#D80B0B"
            />
            <path
              d="M30.4112 5.41562H25.7435L25.3789 7.87061H30.1198L30.4112 5.41562Z"
              fill="#D80B0B"
            />
            <path
              d="M44.268 0H39.2357L38.6885 2.74356H43.5381L44.268 0Z"
              fill="#D80B0B"
            />
          </g>
          <defs>
            <clipPath id="clip0_90_4">
              <rect width="118" height="40.8683" fill="white" />
            </clipPath>
          </defs>
        </svg>